<?xml version="1.0" encoding="UTF-8"?>
<svg width="1392px" height="1392px" viewBox="0 0 1392 1392" version="1.1" xmlns="http://www.w3.org/2000/svg" xmlns:xlink="http://www.w3.org/1999/xlink">
        <path d="M0,696 C0,851 51,994 136,1110 C181,1071 230,1026 272,987 C301,960 339,927 368,900 L358,1010 C304,1061 243,1118 187,1170 C218,1203 252,1233 288,1260 C355,1205 444,1131 522,1098 C562,1081 606,1077 629,1084 C656,1092 679,1108 667,1139 C659,1159 639,1199 612,1199 C610,1199 603,1199 599,1198 C584,1194 580,1181 560,1184 C522,1190 481,1206 442,1231 C412,1250 377,1275 348,1299 C450,1358 569,1392 696,1392 C1080,1392 1392,1080 1392,696 C1392,312 1080,0 696,0 C312,0 0,312 0,696 Z M368,884 C366,880 365,877 369,873 C391,851 419,829 449,803 C462,822 490,844 509,864 C520,876 516,894 499,910 C487,921 476,931 461,940 C448,948 435,947 425,938 C407,922 384,906 368,884 Z M506,1087 C508,1082 515,1064 518,1061 C543,1021 572,983 622,958 C666,936 714,920 763,904 C781,898 796,890 801,881 L789,877 C737,857 654,871 605,899 C586,910 566,935 549,941 C543,943 542,943 540,940 C535,932 563,903 563,901 C629,827 699,796 800,796 C826,796 880,794 898,817 C916,840 888,874 873,890 C848,917 804,943 771,957 C707,984 639,993 579,1030 C566,1038 546,1060 532,1078 C525,1087 520,1095 513,1097 C509,1098 505,1090 506,1087 Z M518,860 L526,752 C570,715 645,652 702,646 C730,643 753,649 781,658 C793,649 793,623 787,611 C773,583 751,606 730,609 C710,612 686,598 696,573 C706,547 719,538 729,512 C741,481 799,467 814,495 C814,495 816,496 817,496 C824,484 817,449 814,435 C812,425 803,409 806,398 C813,374 836,372 848,350 C877,350 877,451 861,486 C855,499 840,515 840,528 C840,605 831,696 771,756 C763,764 741,772 724,763 C686,743 654,753 619,776 C587,797 555,836 519,857 L518,860 Z M674,307 C673,303 673,300 676,297 C698,275 726,253 755,226 C768,246 797,267 815,287 C826,299 822,315 805,332 C793,344 784,355 767,362 C752,368 740,370 731,361 C714,344 690,330 674,307 Z M872,300 C869,297 869,293 873,290 C898,271 922,246 952,218 C965,238 993,260 1013,280 C1025,292 1020,310 1002,325 C990,335 980,347 965,355 C950,363 938,364 928,354 C912,338 888,323 872,300 Z M774,184 C771,181 771,177 775,174 C800,155 824,130 854,102 C867,122 895,144 915,164 C927,176 922,194 904,209 C892,219 882,231 867,239 C852,247 840,248 830,238 C814,222 790,207 774,184 Z" fill="#59595A"></path>
</svg>